<?xml version="1.0" encoding="utf-8"?>
<!-- Generator: Adobe Illustrator 22.0.1, SVG Export Plug-In . SVG Version: 6.00 Build 0)  -->
<svg version="1.1" id="Layer_1" xmlns="http://www.w3.org/2000/svg" xmlns:xlink="http://www.w3.org/1999/xlink" x="0px" y="0px"
	 viewBox="0 0 36 36" style="enable-background:new 0 0 36 36;" xml:space="preserve">
<style type="text/css">
	.st0{fill:none;}
	.st1{fill:#455560;}
</style>
<path class="st0" d="M0,0h36v36H0V0z"/>
<path class="st1" d="M24,16.5c2.5,0,4.5-2,4.5-4.5s-2-4.5-4.5-4.5s-4.5,2-4.5,4.5S21.5,16.5,24,16.5z M12,16.5c2.5,0,4.5-2,4.5-4.5
	s-2-4.5-4.5-4.5s-4.5,2-4.5,4.5S9.5,16.5,12,16.5z M12,19.5c-3.5,0-10.5,1.8-10.5,5.2v3.8h21v-3.8C22.5,21.3,15.5,19.5,12,19.5z
	 M24,19.5c-0.4,0-0.9,0-1.5,0.1c1.7,1.3,3,3,3,5.2v3.8h9v-3.8C34.5,21.3,27.5,19.5,24,19.5z"/>
</svg>
