<?xml version="1.0" encoding="utf-8"?>
<!-- Generator: Adobe Illustrator 22.0.1, SVG Export Plug-In . SVG Version: 6.00 Build 0)  -->
<svg version="1.1" id="Layer_1" xmlns="http://www.w3.org/2000/svg" xmlns:xlink="http://www.w3.org/1999/xlink" x="0px" y="0px"
	 viewBox="0 0 36 36" style="enable-background:new 0 0 36 36;" xml:space="preserve">
<style type="text/css">
	.st0{fill:#455560;}
	.st1{fill:none;}
</style>
<path class="st0" d="M17.7,16.3c-3.4-0.9-4.5-1.8-4.5-3.2c0-1.6,1.5-2.8,4-2.8c2.7,0,3.7,1.3,3.8,3.1h3.3c-0.1-2.6-1.7-5-4.8-5.7
	V4.5H15v3.2c-2.9,0.6-5.2,2.5-5.2,5.4c0,3.5,2.9,5.2,7.1,6.2c3.8,0.9,4.5,2.2,4.5,3.6c0,1-0.7,2.7-4.1,2.7c-3.1,0-4.3-1.4-4.5-3.2
	H9.5c0.2,3.3,2.6,5.1,5.5,5.7v3.3h4.5v-3.2c2.9-0.6,5.3-2.2,5.3-5.3C24.8,18.7,21.1,17.2,17.7,16.3z"/>
<path class="st1" d="M0,0h36v36H0V0z"/>
</svg>
