<?xml version="1.0" encoding="UTF-8"?>
<svg width="24px" height="24px" viewBox="0 0 24 24" version="1.1" xmlns="http://www.w3.org/2000/svg" xmlns:xlink="http://www.w3.org/1999/xlink">
    <!-- Generator: Sketch 49.2 (51160) - http://www.bohemiancoding.com/sketch -->
    <title>twitter</title>
    <desc>Created with Sketch.</desc>
    <defs></defs>
    <g id="twitter" stroke="none" stroke-width="1" fill="none" fill-rule="evenodd">
        <g fill="#FFFFFF" fill-rule="nonzero" id="Combined-Shape">
            <path d="M22.225,0 L22.222,0 C23.2,0 24,0.774 24,1.729 L24,22.271 C24,23.227 23.2,24 22.222,24 L1.771,24 C0.792,24 0,23.227 0,22.271 L0,1.729 C0,0.774 0.792,0 1.771,0 L22.225,0 Z M20.3163124,6.67929338 C19.6765471,6.96050092 18.993408,7.15206904 18.2741239,7.23953977 C19.007143,6.79784874 19.5710039,6.10169742 19.8377535,5.27108696 C19.150277,5.67229567 18.3883419,5.96434669 17.5772497,6.12699887 C16.9295326,5.43373914 16.0063911,5 14.9813209,5 C13.0172055,5 11.4246599,6.59254555 11.4246599,8.55449227 C11.4246599,8.83642271 11.4571904,9.10750968 11.5164681,9.36703026 C8.55981291,9.22751084 5.93930559,7.80773805 4.18555366,5.66145219 C3.87687597,6.18338496 3.70410321,6.78989686 3.70410321,7.45062615 C3.70410321,8.68678271 4.33302496,9.77329926 5.28580528,10.4116187 C4.70242613,10.3928233 4.15374612,10.2323399 3.67518726,9.96631318 L3.67518726,10.01041 C3.67518726,11.7345231 4.89905454,13.1723683 6.52774502,13.4998414 C6.22918791,13.5800831 5.91400414,13.623457 5.59086848,13.623457 C5.36387833,13.623457 5.14628586,13.6017701 4.92869339,13.5612878 C5.38484238,14.9731087 6.69618039,16.0025162 8.2569184,16.0314322 C7.04244881,16.9849354 5.50339775,17.5531337 3.84579133,17.5531337 C3.56386088,17.5531337 3.28265334,17.536507 3,17.5046995 C4.58242497,18.5124201 6.44678038,19.1015824 8.4629445,19.1015824 C15.0080682,19.1015824 18.5828016,13.6827347 18.5828016,8.99112301 C18.5828016,8.84003721 18.5828016,8.68750561 18.5719581,8.53569691 C19.2666636,8.03761979 19.8731755,7.40797514 20.3502886,6.69375135 L20.3163124,6.67929338 Z"></path>
        </g>
    </g>
</svg>