<?xml version="1.0" encoding="UTF-8"?>
<svg width="311px" height="181px" viewBox="0 0 311 181" version="1.1" xmlns="http://www.w3.org/2000/svg" xmlns:xlink="http://www.w3.org/1999/xlink">
    <!-- Generator: Sketch 49.2 (51160) - http://www.bohemiancoding.com/sketch -->
    <title>canada</title>
    <desc>Created with Sketch.</desc>
    <defs></defs>
    <g id="Page-1" stroke="none" stroke-width="1" fill="none" fill-rule="evenodd">
        <g id="canada" fill-rule="nonzero">
            <g id="Group">
                <path d="M305,180.1 L6.1,180.1 C3.2,180.1 0.8,178 0.8,175.4 L0.8,4.7 C0.8,2.1 3.2,0 6.1,0 L305,0 C307.9,0 310.3,2.1 310.3,4.7 L310.3,175.3 C310.4,178 308,180.1 305,180.1 Z" id="Shape" fill="#F5F5F5"></path>
                <rect id="Rectangle-path" fill="#FFFFFF" x="70.2" y="0" width="170.8" height="180.1"></rect>
            </g>
            <g id="Group" fill="#FF4B55">
                <path d="M6.1,0 C3.2,0 0.8,2.1 0.8,4.7 L0.8,175.3 C0.8,177.9 3.2,180 6.1,180 L70.1,180 L70.1,0 L6.1,0 Z" id="Shape"></path>
                <path d="M305,0 L241,0 L241,180.1 L305,180.1 C307.9,180.1 310.3,178 310.3,175.4 L310.3,4.7 C310.4,2.1 308,0 305,0 Z" id="Shape"></path>
                <path d="M180.8,105.7 L205.5,91.6 L199.8,88.8 C198.2,88 197.3,86.3 197.5,84.5 L199.3,70.7 L188.8,73.7 C186.5,74.4 184.1,73 183.6,70.6 L182.6,66.1 L172.8,77.6 C171.4,79.2 168.8,78 169.2,75.9 L173.4,51.5 L167,53.3 C165.1,53.8 163.1,53 162.2,51.2 L155.4,38.5 L148.6,51.2 C147.7,52.9 145.7,53.8 143.8,53.3 L137.4,51.5 L141.6,75.9 C142,78 139.4,79.2 138,77.6 L128.2,66.1 L127.2,70.6 C126.7,72.9 124.3,74.4 122,73.7 L111.5,70.7 L113.3,84.5 C113.5,86.3 112.6,88 111,88.8 L105.3,91.6 L130,105.7 C132.6,107.2 133.7,110.3 132.6,113 L130.5,118.6 L151.7,116.8 C152.9,116.7 153.9,117.6 153.8,118.8 L153.1,141.5 L157.3,141.5 L156.6,118.8 C156.6,117.6 157.6,116.7 158.7,116.8 L179.9,118.6 L177.8,113 C177.2,110.3 178.3,107.2 180.8,105.7 Z" id="Shape"></path>
            </g>
        </g>
    </g>
</svg>