<?xml version="1.0" encoding="utf-8"?>
<!-- Generator: Adobe Illustrator 15.1.0, SVG Export Plug-In  -->
<!DOCTYPE svg PUBLIC "-//W3C//DTD SVG 1.1//EN" "http://www.w3.org/Graphics/SVG/1.1/DTD/svg11.dtd" [
	<!ENTITY ns_flows "http://ns.adobe.com/Flows/1.0/">
]>
<svg version="1.1"
	 xmlns="http://www.w3.org/2000/svg" xmlns:xlink="http://www.w3.org/1999/xlink" xmlns:a="http://ns.adobe.com/AdobeSVGViewerExtensions/3.0/"
	 x="0px" y="0px" width="1229px" height="244px" viewBox="128 155 1229 244"
	 overflow="visible" enable-background="new 128 155 1229 244" xml:space="preserve">
<defs>
</defs>
<g>
	<defs>
		<rect id="SVGID_1_" width="1485" height="554"/>
	</defs>
	<clipPath id="SVGID_2_">
		<use xlink:href="#SVGID_1_"  overflow="visible"/>
	</clipPath>
	<path clip-path="url(#SVGID_2_)" fill="#A74F25" d="M451.104,303.679h-51.106v-5.852c5.383-2.149,10.904-3.771,16.562-4.855
		V173.181c-6.33-0.939-11.85-2.624-16.562-5.052v-5.852h51.106v5.852c-2.288,1.214-4.716,2.231-7.273,3.031
		c-2.56,0.81-5.181,1.485-7.876,2.021v52.727h63.432v-52.727c-2.831-0.672-5.492-1.413-7.982-2.218
		c-2.494-0.807-4.885-1.75-7.171-2.834v-5.852h51.108v5.852c-2.425,1.35-5.087,2.4-7.976,3.136c-2.901,0.739-5.76,1.38-8.588,1.916
		v119.791c3.099,0.542,6.062,1.214,8.89,2.026c2.828,0.803,5.385,1.751,7.674,2.829v5.852h-51.108v-5.852
		c4.849-2.149,9.901-3.771,15.153-4.855V236.41h-63.432v56.562c2.695,0.542,5.316,1.214,7.876,2.026
		c2.557,0.803,4.985,1.751,7.273,2.829V303.679z"/>
	<path clip-path="url(#SVGID_2_)" fill="#A74F25" d="M601.195,303.679h-51.712v-5.852c5.249-2.429,10.634-4.046,16.16-4.855V173.181
		c-2.696-0.536-5.39-1.241-8.083-2.122c-2.695-0.869-5.384-1.846-8.077-2.93v-5.852h51.712v5.852
		c-2.425,1.084-5.049,2.061-7.877,2.93c-2.828,0.881-5.587,1.586-8.283,2.122v119.791c2.827,0.542,5.658,1.214,8.486,2.026
		c2.828,0.803,5.385,1.751,7.674,2.829V303.679z"/>
	<path clip-path="url(#SVGID_2_)" fill="#A74F25" d="M732.501,293.988c-2.563,1.481-5.558,2.927-8.989,4.338
		c-3.438,1.417-7.073,2.704-10.911,3.839c-3.838,1.15-7.677,2.087-11.512,2.83c-3.84,0.736-7.445,1.112-10.809,1.112
		c-10.776,0-20.472-1.452-29.092-4.345c-8.619-2.895-15.956-7.343-22.015-13.337c-6.062-5.985-10.745-13.561-14.041-22.721
		c-3.302-9.155-4.947-20.067-4.947-32.727c0-13.196,1.917-24.443,5.755-33.737c3.837-9.294,8.954-16.868,15.352-22.725
		c6.396-5.855,13.665-10.1,21.815-12.727c8.145-2.625,16.469-3.934,24.95-3.934c8.886,0,16.396,0.572,22.523,1.712
		c6.13,1.15,11.481,2.859,16.062,5.151c0,2.02-0.068,4.509-0.201,7.476c-0.138,2.961-0.338,6.06-0.61,9.291
		c-0.268,3.231-0.606,6.432-1.004,9.596c-0.407,3.166-0.813,5.96-1.22,8.387h-5.249l-10.504-29.094
		c-1.476-0.808-3.961-1.344-7.455-1.617c-3.49-0.263-6.912-0.398-10.27-0.398c-6.712,0-13.088,1.244-19.129,3.733
		c-6.044,2.489-11.318,6.331-15.812,11.515c-4.507,5.188-8.095,11.712-10.778,19.594c-2.686,7.877-4.027,17.143-4.027,27.777
		c0,9.562,1.306,18.18,3.928,25.861c2.618,7.675,6.248,14.24,10.877,19.689c4.633,5.458,10.073,9.669,16.32,12.626
		c6.244,2.967,12.996,4.448,20.247,4.448c2.684,0,5.306-0.265,7.856-0.807c2.554-0.538,4.904-1.184,7.055-1.92
		c2.143-0.741,3.923-1.518,5.337-2.329c1.411-0.804,2.388-1.474,2.923-2.018v-40.806c-3.502-0.267-6.838-0.872-10.002-1.817
		c-3.163-0.939-6.296-1.946-9.392-3.027v-5.863h49.493v5.863c-1.349,0.942-2.963,1.814-4.849,2.624
		c-1.89,0.807-4.447,1.552-7.675,2.22V293.988z"/>
	<path clip-path="url(#SVGID_2_)" fill="#A74F25" d="M804.01,303.679h-51.111v-5.852c5.386-2.149,10.909-3.771,16.565-4.855V173.181
		c-6.331-0.939-11.848-2.624-16.565-5.052v-5.852h51.111v5.852c-2.289,1.214-4.714,2.231-7.271,3.031
		c-2.562,0.81-5.185,1.485-7.878,2.021v52.727h63.429v-52.727c-2.831-0.672-5.488-1.413-7.978-2.218
		c-2.495-0.807-4.883-1.75-7.176-2.834v-5.852h51.111v5.852c-2.424,1.35-5.087,2.4-7.978,3.136c-2.9,0.739-5.759,1.38-8.585,1.916
		v119.791c3.098,0.542,6.059,1.214,8.886,2.026c2.829,0.803,5.392,1.751,7.677,2.829v5.852h-51.111v-5.852
		c4.85-2.149,9.901-3.771,15.153-4.855V236.41H788.86v56.562c2.693,0.542,5.316,1.214,7.878,2.026
		c2.558,0.803,4.982,1.751,7.271,2.829V303.679z"/>
	<path clip-path="url(#SVGID_2_)" fill="#A74F25" d="M1011.673,293.988c-2.559,1.481-5.551,2.927-8.989,4.338
		c-3.435,1.417-7.065,2.704-10.906,3.839c-3.834,1.15-7.678,2.087-11.512,2.83c-3.843,0.736-7.445,1.112-10.812,1.112
		c-10.773,0-20.473-1.452-29.089-4.345c-8.618-2.895-15.955-7.343-22.022-13.337c-6.056-5.985-10.738-13.561-14.037-22.721
		c-3.302-9.155-4.945-20.067-4.945-32.727c0-13.196,1.918-24.443,5.755-33.737c3.843-9.294,8.956-16.868,15.354-22.725
		c6.396-5.855,13.668-10.1,21.818-12.727c8.143-2.625,16.462-3.934,24.946-3.934c8.89,0,16.397,0.572,22.521,1.712
		c6.129,1.15,11.48,2.859,16.064,5.151c0,2.02-0.069,4.509-0.205,7.476c-0.134,2.961-0.338,6.06-0.605,9.291
		c-0.269,3.231-0.607,6.432-1.012,9.596c-0.4,3.166-0.806,5.96-1.213,8.387h-5.252l-10.498-29.094
		c-1.481-0.808-3.964-1.344-7.458-1.617c-3.488-0.263-6.915-0.398-10.271-0.398c-6.711,0-13.092,1.244-19.129,3.733
		c-6.043,2.489-11.32,6.331-15.816,11.515c-4.502,5.188-8.087,11.712-10.774,19.594c-2.689,7.877-4.031,17.143-4.031,27.777
		c0,9.562,1.312,18.18,3.931,25.861c2.621,7.675,6.25,14.24,10.883,19.689c4.633,5.458,10.07,9.669,16.313,12.626
		c6.248,2.967,12.996,4.448,20.25,4.448c2.685,0,5.302-0.265,7.857-0.807c2.553-0.538,4.902-1.184,7.05-1.92
		c2.146-0.741,3.927-1.518,5.339-2.329c1.413-0.804,2.39-1.474,2.924-2.018v-40.806c-3.506-0.267-6.836-0.872-10.001-1.817
		c-3.166-0.939-6.298-1.946-9.391-3.027v-5.863h49.49v5.863c-1.344,0.942-2.965,1.814-4.85,2.624
		c-1.886,0.807-4.442,1.552-7.677,2.22V293.988z"/>
	<path clip-path="url(#SVGID_2_)" fill="#A74F25" d="M1058.942,303.679h-44.849v-5.852c4.85-2.149,9.701-3.771,14.546-4.855
		l51.111-133.116h5.855l51.107,133.116c2.696,0.542,5.353,1.149,7.981,1.824c2.627,0.674,5.085,1.682,7.372,3.031v5.852h-52.119
		v-5.852c2.693-1.078,5.455-2.026,8.288-2.829c2.827-0.812,5.58-1.484,8.278-2.026l-13.664-36.965h-48.024l-13.258,36.965
		c5.659,0.81,11.446,2.427,17.374,4.855V303.679z M1058.847,245.503h40.588l-15.873-42.827l-3.817-17.373h-0.4l-5.024,17.776
		L1058.847,245.503z"/>
	<path clip-path="url(#SVGID_2_)" fill="#A74F25" d="M1217.112,303.679h-56.759v-5.852c2.957-1.078,5.954-2.026,8.988-2.829
		c3.027-0.812,6.293-1.484,9.791-2.026V172.781h-30.904l-10.705,28.881h-5.057c-0.396-2.686-0.734-5.751-1.005-9.185
		c-0.271-3.438-0.506-6.938-0.706-10.504c-0.2-3.567-0.373-7.073-0.505-10.505c-0.136-3.437-0.204-6.5-0.204-9.191h117.368
		c0,2.691-0.071,5.723-0.207,9.087c-0.132,3.37-0.305,6.838-0.505,10.405c-0.209,3.567-0.413,7.073-0.615,10.505
		c-0.203,3.431-0.512,6.567-0.921,9.388h-5.311l-10.619-28.881h-30.708v120.191c3.502,0.678,6.764,1.354,9.798,2.026
		c3.031,0.68,5.955,1.615,8.785,2.829V303.679z"/>
	<path clip-path="url(#SVGID_2_)" fill="#A74F25" d="M1351.446,162.276c-0.135,5.388-0.371,10.807-0.709,16.258
		c-0.334,5.453-0.841,10.945-1.511,16.469h-5.254l-8.282-22.223h-44.038v53.532h32.928l7.878-14.95h5.05
		c0.808,13.333,0.808,26.938,0,40.807h-5.05l-7.878-15.353h-32.928v56.359h46.463l9.896-24.236h5.053
		c0.938,5.655,1.613,11.378,2.02,17.169c0.4,5.791,0.471,11.65,0.202,17.57h-99.59v-5.852c4.712-2.149,10.235-3.771,16.562-4.855
		V173.181c-2.692-0.536-5.451-1.241-8.279-2.122c-2.827-0.869-5.592-1.845-8.282-2.929v-5.853H1351.446z"/>
	<rect x="402.524" y="332.969" clip-path="url(#SVGID_2_)" fill="#455560" width="953.981" height="62.76"/>
	<path clip-path="url(#SVGID_2_)" fill="#FFFFFF" d="M492.175,373.224c0-1.129-0.412-2.049-1.238-2.755
		c-0.832-0.701-1.87-1.346-3.123-1.933c-1.251-0.581-2.606-1.176-4.07-1.794c-1.463-0.619-2.819-1.373-4.069-2.276
		c-1.25-0.897-2.292-2.018-3.12-3.357c-0.829-1.334-1.242-3.043-1.242-5.123c0-1.799,0.302-3.357,0.9-4.683
		c0.597-1.318,1.45-2.421,2.563-3.306c1.108-0.878,2.424-1.531,3.937-1.955c1.515-0.423,3.209-0.632,5.076-0.632
		c2.15,0,4.177,0.182,6.08,0.555c1.901,0.376,3.47,0.908,4.704,1.611l-2.273,6.08c-0.776-0.492-1.938-0.937-3.49-1.342
		c-1.549-0.411-3.222-0.612-5.021-0.612c-1.691,0-2.988,0.334-3.887,1.005c-0.897,0.666-1.347,1.565-1.347,2.692
		c0,1.06,0.416,1.938,1.241,2.644c0.829,0.709,1.867,1.354,3.118,1.955c1.251,0.602,2.61,1.217,4.073,1.853
		c1.459,0.635,2.821,1.402,4.072,2.302c1.25,0.899,2.292,2.008,3.116,3.329c0.833,1.318,1.243,2.969,1.243,4.94
		c0,1.971-0.324,3.679-0.977,5.104c-0.653,1.426-1.568,2.616-2.748,3.566c-1.183,0.953-2.609,1.658-4.282,2.117
		c-1.675,0.457-3.518,0.685-5.526,0.685c-2.643,0-4.969-0.244-6.977-0.74c-2.008-0.486-3.49-0.985-4.439-1.478l2.323-6.187
		c0.388,0.21,0.89,0.438,1.509,0.687c0.616,0.246,1.313,0.478,2.088,0.687c0.777,0.213,1.594,0.392,2.459,0.531
		c0.862,0.141,1.749,0.209,2.667,0.209c2.151,0,3.796-0.359,4.942-1.085C491.602,375.801,492.175,374.696,492.175,373.224"/>
	<polygon clip-path="url(#SVGID_2_)" fill="#FFFFFF" points="610.433,369.409 598.277,346.151 606.89,346.151 613.661,360.057 
		614.4,363.963 614.666,363.963 615.457,359.946 622.012,346.151 629.784,346.151 617.675,369.354 617.675,383.154 610.433,383.154 
			"/>
	<path clip-path="url(#SVGID_2_)" fill="#FFFFFF" d="M746.298,373.224c0-1.129-0.418-2.049-1.244-2.755
		c-0.832-0.701-1.869-1.346-3.117-1.933c-1.251-0.581-2.613-1.176-4.073-1.794c-1.46-0.619-2.818-1.373-4.072-2.276
		c-1.251-0.897-2.289-2.018-3.118-3.357c-0.829-1.334-1.245-3.043-1.245-5.123c0-1.799,0.303-3.357,0.9-4.683
		c0.595-1.318,1.455-2.421,2.564-3.306c1.108-0.878,2.424-1.531,3.936-1.955c1.515-0.423,3.207-0.632,5.08-0.632
		c2.15,0,4.174,0.182,6.08,0.555c1.902,0.376,3.47,0.908,4.709,1.611l-2.278,6.08c-0.772-0.492-1.937-0.937-3.493-1.342
		c-1.55-0.411-3.222-0.612-5.017-0.612c-1.692,0-2.988,0.334-3.885,1.005c-0.899,0.666-1.349,1.565-1.349,2.692
		c0,1.06,0.413,1.938,1.242,2.644c0.828,0.709,1.869,1.354,3.116,1.955c1.254,0.602,2.607,1.217,4.077,1.853
		c1.46,0.635,2.814,1.402,4.066,2.302c1.247,0.899,2.295,2.008,3.123,3.329c0.822,1.318,1.24,2.969,1.24,4.94
		c0,1.971-0.328,3.679-0.981,5.104s-1.568,2.616-2.748,3.566c-1.177,0.953-2.604,1.658-4.279,2.117
		c-1.676,0.457-3.517,0.685-5.525,0.685c-2.643,0-4.969-0.244-6.98-0.74c-2.006-0.486-3.487-0.985-4.439-1.478l2.326-6.187
		c0.388,0.21,0.886,0.438,1.509,0.687c0.616,0.246,1.312,0.478,2.089,0.687c0.769,0.213,1.592,0.392,2.455,0.531
		c0.862,0.141,1.752,0.209,2.667,0.209c2.153,0,3.799-0.359,4.948-1.085C745.722,375.801,746.298,374.696,746.298,373.224"/>
	<polygon clip-path="url(#SVGID_2_)" fill="#FFFFFF" points="881.63,352.597 870.846,352.597 870.846,383.154 863.601,383.154 
		863.601,352.597 852.767,352.597 852.767,346.151 881.63,346.151 	"/>
	<polygon clip-path="url(#SVGID_2_)" fill="#FFFFFF" points="982.175,346.151 1004.117,346.151 1004.117,352.597 989.418,352.597 
		989.418,361.215 1002.792,361.215 1002.792,367.665 989.418,367.665 989.418,376.708 1004.378,376.708 1004.378,383.154 
		982.175,383.154 	"/>
	<polygon clip-path="url(#SVGID_2_)" fill="#FFFFFF" points="1137.388,363.963 1138.174,356.616 1137.859,356.616 1135.589,362.54 
		1127.71,376.335 1125.381,376.335 1117.082,362.485 1114.756,356.616 1114.494,356.616 1115.548,363.911 1115.548,383.154 
		1108.677,383.154 1108.677,346.151 1115.287,346.151 1125.172,363.071 1126.915,367.293 1127.127,367.293 1128.715,362.966 
		1138.068,346.151 1144.628,346.151 1144.628,383.154 1137.388,383.154 	"/>
	<path clip-path="url(#SVGID_2_)" fill="#FFFFFF" d="M1265.845,373.224c0-1.129-0.418-2.049-1.248-2.755
		c-0.828-0.701-1.863-1.346-3.113-1.933c-1.25-0.581-2.61-1.176-4.069-1.794c-1.467-0.619-2.821-1.373-4.071-2.276
		c-1.256-0.897-2.289-2.018-3.119-3.357c-0.828-1.334-1.246-3.043-1.246-5.123c0-1.799,0.301-3.357,0.901-4.683
		c0.599-1.318,1.457-2.421,2.564-3.306c1.11-0.878,2.422-1.531,3.939-1.955c1.514-0.423,3.203-0.632,5.068-0.632
		c2.154,0,4.179,0.182,6.084,0.555c1.902,0.376,3.474,0.908,4.705,1.611l-2.271,6.08c-0.778-0.492-1.944-0.937-3.493-1.342
		c-1.55-0.411-3.226-0.612-5.025-0.612c-1.688,0-2.983,0.334-3.879,1.005c-0.903,0.666-1.352,1.565-1.352,2.692
		c0,1.06,0.413,1.938,1.245,2.644c0.829,0.709,1.864,1.354,3.114,1.955c1.25,0.602,2.612,1.217,4.075,1.853
		c1.46,0.635,2.816,1.402,4.07,2.302c1.25,0.899,2.288,2.008,3.12,3.329c0.826,1.318,1.241,2.969,1.241,4.94
		c0,1.971-0.329,3.679-0.982,5.104c-0.649,1.426-1.565,2.616-2.744,3.566c-1.185,0.953-2.606,1.658-4.282,2.117
		c-1.673,0.457-3.516,0.685-5.525,0.685c-2.643,0-4.968-0.244-6.979-0.74c-2.007-0.486-3.49-0.985-4.445-1.478l2.33-6.187
		c0.391,0.21,0.89,0.438,1.505,0.687c0.62,0.246,1.312,0.478,2.089,0.687c0.775,0.213,1.599,0.392,2.462,0.531
		c0.859,0.141,1.749,0.209,2.671,0.209c2.146,0,3.794-0.359,4.943-1.085C1265.272,375.801,1265.845,374.696,1265.845,373.224"/>
	<path clip-path="url(#SVGID_2_)" fill="#455560" d="M372.107,277.007c0,67.268-54.533,121.796-121.806,121.796
		c-67.277,0-121.806-54.528-121.806-121.796c0-67.268,54.529-121.81,121.806-121.81
		C317.574,155.197,372.107,209.739,372.107,277.007"/>
	<path clip-path="url(#SVGID_2_)" fill="#FFFFFF" d="M253.437,274.563c-93.374-10.467-121.803,37.581-121.803,37.581l2.326,14.759
		l18.297,27.592l16.493,12.998c-16.772-32.998-2.852-60.09,17.762-74.219C213.854,274.54,253.437,274.563,253.437,274.563"/>
	<path clip-path="url(#SVGID_2_)" fill="#FFFFFF" d="M248.102,279.942c93.374,10.467,121.802-37.588,121.802-37.588l-2.319-14.745
		l-18.298-27.601L332.789,187c16.775,32.998,2.858,60.09-17.755,74.22C287.691,279.972,248.102,279.942,248.102,279.942"/>
	<path clip-path="url(#SVGID_2_)" fill="#FFFFFF" d="M222.632,329.353v-49.352v-9.168v-46c2.348-0.473,4.636-1.066,6.875-1.768
		c2.231-0.702,4.338-1.586,6.344-2.637v-5.115h-44.596v5.115c4.11,2.111,8.93,3.583,14.457,4.405v104.52
		c-4.938,0.938-9.756,2.35-14.457,4.232v5.11h44.596v-5.11c-2.006-0.943-4.113-1.762-6.344-2.471
		C227.268,330.405,224.98,329.824,222.632,329.353"/>
	<path clip-path="url(#SVGID_2_)" fill="#FFFFFF" d="M302.385,223.157c2.526-0.646,4.848-1.559,6.964-2.729v-5.116h-44.601v5.116
		c2.003,0.937,4.091,1.759,6.262,2.47c2.172,0.697,4.495,1.347,6.965,1.935v46v9.168v49.352c-4.587,0.939-8.988,2.35-13.227,4.232
		v5.11h44.601v-5.11c-2.002-0.943-4.229-1.762-6.7-2.471c-2.47-0.709-5.052-1.29-7.75-1.762v-104.52
		C297.37,224.359,299.854,223.798,302.385,223.157"/>
	<path clip-path="url(#SVGID_2_)" fill="#FFFFFF" d="M274.71,281.359c-7.376,0-16.14-0.67-24.655-1.321
		c-11.495-0.879-23.383-1.781-31.001-0.953l-0.693-6.338c8.207-0.907,19.852-0.009,32.178,0.93
		c9.748,0.742,19.829,1.509,27.476,1.247c1.165-0.04,1.455-0.098,2.087-0.227c0.465-0.096,1.024-0.21,1.955-0.342l0.906,6.315
		c-0.756,0.106-1.21,0.199-1.589,0.276c-0.896,0.185-1.556,0.298-3.135,0.354C277.106,281.341,275.925,281.359,274.71,281.359"/>
</g>
</svg>
